<svg width="193" height="42" viewBox="0 0 193 42" fill="none" xmlns="http://www.w3.org/2000/svg">
<path d="M59.872 29.5367C58.8 29.5367 57.808 29.3336 56.896 28.9272C56 28.5053 55.264 27.9192 54.688 27.1691L56.464 25.0828C57.392 26.333 58.504 26.9581 59.8 26.9581C61.544 26.9581 62.416 25.9501 62.416 23.9341V15.4482H56.44V12.893H65.536V23.77C65.536 25.6923 65.056 27.1379 64.096 28.1068C63.136 29.0601 61.728 29.5367 59.872 29.5367ZM82.0323 16.7844V29.3023H79.1763V27.7083C78.6963 28.2709 78.0963 28.7085 77.3763 29.021C76.6563 29.3179 75.8803 29.4664 75.0483 29.4664C73.3363 29.4664 71.9843 29.0054 70.9923 28.0833C70.0163 27.1457 69.5283 25.7626 69.5283 23.9341V16.7844H72.5283V23.5356C72.5283 24.6608 72.7843 25.5047 73.2963 26.0673C73.8243 26.6143 74.5683 26.8878 75.5283 26.8878C76.6003 26.8878 77.4483 26.5674 78.0723 25.9267C78.7123 25.2703 79.0323 24.3326 79.0323 23.1137V16.7844H82.0323ZM88.8162 18.6128C89.6802 17.3001 91.2002 16.6437 93.3762 16.6437V19.4333C93.1202 19.3864 92.8882 19.363 92.6802 19.363C91.5122 19.363 90.6002 19.699 89.9442 20.371C89.2882 21.0273 88.9602 21.9806 88.9602 23.2309V29.3023H85.9602V16.7844H88.8162V18.6128ZM103.193 16.6437C104.809 16.6437 106.105 17.1047 107.081 18.0268C108.057 18.9488 108.545 20.3163 108.545 22.1291V29.3023H105.545V22.5042C105.545 21.4102 105.281 20.5898 104.753 20.0428C104.225 19.4802 103.473 19.1989 102.497 19.1989C101.393 19.1989 100.521 19.5271 99.8811 20.1834C99.2411 20.8242 98.9211 21.754 98.9211 22.973V29.3023H95.9211V16.7844H98.7771V18.4019C99.2731 17.8236 99.8971 17.386 100.649 17.0891C101.401 16.7922 102.249 16.6437 103.193 16.6437ZM117.247 16.6437C119.135 16.6437 120.575 17.0891 121.567 17.9799C122.575 18.8551 123.079 20.1834 123.079 21.965V29.3023H120.247V27.7786C119.879 28.3256 119.351 28.7475 118.663 29.0445C117.991 29.3258 117.175 29.4664 116.215 29.4664C115.255 29.4664 114.415 29.3101 113.695 28.9976C112.975 28.6694 112.415 28.224 112.015 27.6614C111.631 27.0832 111.439 26.4346 111.439 25.7157C111.439 24.5905 111.863 23.6919 112.711 23.0199C113.575 22.3323 114.927 21.9885 116.767 21.9885H120.079V21.8009C120.079 20.9258 119.807 20.2538 119.263 19.7849C118.735 19.3161 117.943 19.0817 116.887 19.0817C116.167 19.0817 115.455 19.1911 114.751 19.4099C114.063 19.6286 113.479 19.9334 112.999 20.3241L111.823 18.1909C112.495 17.6908 113.303 17.3079 114.247 17.0422C115.191 16.7765 116.191 16.6437 117.247 16.6437ZM116.839 27.3332C117.591 27.3332 118.255 27.1691 118.831 26.8409C119.423 26.4971 119.839 26.0126 120.079 25.3875V23.9341H116.983C115.255 23.9341 114.391 24.4889 114.391 25.5985C114.391 26.1299 114.607 26.5518 115.039 26.8644C115.471 27.1769 116.071 27.3332 116.839 27.3332ZM126.929 11.9085H129.929V29.3023H126.929V11.9085ZM140.97 16.6437C142.218 16.6437 143.33 16.9094 144.306 17.4407C145.298 17.9721 146.074 18.7222 146.634 19.6912C147.194 20.6601 147.474 21.7775 147.474 23.0433C147.474 24.3092 147.194 25.4344 146.634 26.419C146.074 27.3879 145.298 28.138 144.306 28.6694C143.33 29.2007 142.218 29.4664 140.97 29.4664C140.09 29.4664 139.282 29.3179 138.546 29.021C137.826 28.7241 137.218 28.2787 136.722 27.6848V29.3023H133.866V11.9085H136.866V18.3081C137.378 17.7611 137.978 17.347 138.666 17.0657C139.37 16.7844 140.138 16.6437 140.97 16.6437ZM140.634 26.9581C141.738 26.9581 142.642 26.5987 143.346 25.8798C144.066 25.1609 144.426 24.2154 144.426 23.0433C144.426 21.8712 144.066 20.9258 143.346 20.2069C142.642 19.488 141.738 19.1285 140.634 19.1285C139.914 19.1285 139.266 19.2926 138.69 19.6208C138.114 19.9334 137.658 20.3866 137.322 20.9805C136.986 21.5743 136.818 22.2619 136.818 23.0433C136.818 23.8247 136.986 24.5124 137.322 25.1062C137.658 25.7001 138.114 26.1611 138.69 26.4893C139.266 26.8019 139.914 26.9581 140.634 26.9581ZM150.32 16.7844H153.32V29.3023H150.32V16.7844ZM151.832 14.7215C151.288 14.7215 150.832 14.5574 150.464 14.2292C150.096 13.8854 149.912 13.4634 149.912 12.9633C149.912 12.4632 150.096 12.0491 150.464 11.7209C150.832 11.3771 151.288 11.2052 151.832 11.2052C152.376 11.2052 152.832 11.3693 153.2 11.6975C153.568 12.01 153.752 12.4085 153.752 12.893C153.752 13.4087 153.568 13.8463 153.2 14.2058C152.848 14.5496 152.392 14.7215 151.832 14.7215ZM155.937 34.0141C154.673 34.0141 153.713 33.7719 153.057 33.2874L153.921 31.1073C154.369 31.4355 154.953 31.5996 155.673 31.5996C156.233 31.5996 156.657 31.4277 156.945 31.0839C157.249 30.7557 157.401 30.2634 157.401 29.6071V16.7844H160.401V29.5367C160.401 30.9276 160.009 32.0216 159.225 32.8186C158.441 33.6156 157.345 34.0141 155.937 34.0141ZM158.889 14.7215C158.345 14.7215 157.889 14.5574 157.521 14.2292C157.153 13.8854 156.969 13.4634 156.969 12.9633C156.969 12.4632 157.153 12.0491 157.521 11.7209C157.889 11.3771 158.345 11.2052 158.889 11.2052C159.433 11.2052 159.889 11.3693 160.257 11.6975C160.625 12.01 160.809 12.4085 160.809 12.893C160.809 13.4087 160.625 13.8463 160.257 14.2058C159.905 14.5496 159.449 14.7215 158.889 14.7215ZM169.231 16.6437C171.119 16.6437 172.559 17.0891 173.551 17.9799C174.559 18.8551 175.063 20.1834 175.063 21.965V29.3023H172.231V27.7786C171.863 28.3256 171.335 28.7475 170.647 29.0445C169.975 29.3258 169.159 29.4664 168.199 29.4664C167.239 29.4664 166.399 29.3101 165.679 28.9976C164.959 28.6694 164.399 28.224 163.999 27.6614C163.615 27.0832 163.423 26.4346 163.423 25.7157C163.423 24.5905 163.847 23.6919 164.695 23.0199C165.559 22.3323 166.911 21.9885 168.751 21.9885H172.063V21.8009C172.063 20.9258 171.791 20.2538 171.247 19.7849C170.719 19.3161 169.927 19.0817 168.871 19.0817C168.151 19.0817 167.439 19.1911 166.735 19.4099C166.047 19.6286 165.463 19.9334 164.983 20.3241L163.807 18.1909C164.479 17.6908 165.287 17.3079 166.231 17.0422C167.175 16.7765 168.175 16.6437 169.231 16.6437ZM168.823 27.3332C169.575 27.3332 170.239 27.1691 170.815 26.8409C171.407 26.4971 171.823 26.0126 172.063 25.3875V23.9341H168.967C167.239 23.9341 166.375 24.4889 166.375 25.5985C166.375 26.1299 166.591 26.5518 167.023 26.8644C167.455 27.1769 168.055 27.3332 168.823 27.3332ZM184.145 23.9341L181.913 25.997V29.3023H178.913V11.9085H181.913V22.4104L188.129 16.7844H191.729L186.377 22.0353L192.233 29.3023H188.585L184.145 23.9341Z" fill="#0353A4"/>
<path fill-rule="evenodd" clip-rule="evenodd" d="M2.60221 33.9522C2.58652 11.3269 2.57867 0.0141602 2.57867 0.0141602C8.12157 0.493178 13.706 2.42896 19.3318 5.82146C19.4154 5.8736 19.4572 5.8997 19.4572 5.8997C19.4515 28.3727 19.4486 39.6094 19.4486 39.6094C13.8131 36.3158 8.19756 34.43 2.60221 33.9522Z" fill="#0353A4"/>
<path fill-rule="evenodd" clip-rule="evenodd" d="M37.2601 33.9381C37.2758 11.3127 37.2836 0 37.2836 0C31.7407 0.479073 26.1564 2.41485 20.5306 5.8073C20.4469 5.85944 20.4051 5.88555 20.4051 5.88555C20.4109 28.3587 20.4138 39.5952 20.4138 39.5952C26.0493 36.3017 31.6648 34.416 37.2601 33.9381Z" fill="#FFC81B"/>
<path fill-rule="evenodd" clip-rule="evenodd" d="M1.73545 34.9434C1.75293 14.2049 1.76162 3.83569 1.76162 3.83569C0.587227 3.83569 0 3.83569 0 3.83569C0.0078465 26.4643 0.0116379 37.4593 0.0116379 37.4593C6.3356 37.0815 14.1763 38.8428 19.9873 41.4526C15.4568 37.8286 9.47236 35.7125 1.73545 34.9434Z" fill="#0353A4"/>
<path fill-rule="evenodd" clip-rule="evenodd" d="M38.2645 34.9438C38.2471 14.2054 38.2383 3.83618 38.2383 3.83618C39.4128 3.83618 40 3.83618 40 3.83618C39.9922 26.4646 39.9884 37.4598 39.9884 37.4598C33.6643 37.0819 25.8236 38.8433 20.0127 41.453C24.5431 37.8291 30.5276 35.7129 38.2645 34.9438Z" fill="#FFC81B"/>
<path d="M9.48599 28.9292C8.53799 28.9292 7.81799 28.7475 7.32599 28.3842L7.97399 26.7491C8.30999 26.9953 8.74799 27.1183 9.28799 27.1183C9.70799 27.1183 10.026 26.9894 10.242 26.7315C10.47 26.4854 10.584 26.1162 10.584 25.6239V16.0069H12.834V25.5712C12.834 26.6143 12.54 27.4348 11.952 28.0326C11.364 28.6303 10.542 28.9292 9.48599 28.9292ZM11.7 14.4597C11.292 14.4597 10.95 14.3366 10.674 14.0905C10.398 13.8326 10.26 13.5162 10.26 13.1411C10.26 12.766 10.398 12.4554 10.674 12.2093C10.95 11.9514 11.292 11.8225 11.7 11.8225C12.108 11.8225 12.45 11.9456 12.726 12.1917C13.002 12.4261 13.14 12.725 13.14 13.0884C13.14 13.4752 13.002 13.8033 12.726 14.0729C12.462 14.3308 12.12 14.4597 11.7 14.4597Z" fill="white"/>
<path d="M29.804 17.8549C30.74 17.8549 31.574 18.0542 32.306 18.4527C33.05 18.8512 33.632 19.4138 34.052 20.1405C34.472 20.8672 34.682 21.7052 34.682 22.6546C34.682 23.604 34.472 24.4479 34.052 25.1863C33.632 25.913 33.05 26.4757 32.306 26.8742C31.574 27.2727 30.74 27.4719 29.804 27.4719C29.144 27.4719 28.538 27.3606 27.986 27.1379C27.446 26.9152 26.99 26.5811 26.618 26.1357V27.3489H24.476V14.3035H26.726V19.1032C27.11 18.693 27.56 18.3824 28.076 18.1714C28.604 17.9604 29.18 17.8549 29.804 17.8549ZM29.552 25.5907C30.38 25.5907 31.058 25.3211 31.586 24.782C32.126 24.2428 32.396 23.5337 32.396 22.6546C32.396 21.7756 32.126 21.0664 31.586 20.5273C31.058 19.9881 30.38 19.7185 29.552 19.7185C29.012 19.7185 28.526 19.8416 28.094 20.0877C27.662 20.3222 27.32 20.6621 27.068 21.1075C26.816 21.5529 26.69 22.0686 26.69 22.6546C26.69 23.2407 26.816 23.7564 27.068 24.2018C27.32 24.6472 27.662 24.993 28.094 25.2391C28.526 25.4735 29.012 25.5907 29.552 25.5907Z" fill="white"/>
</svg>
