<svg width="51" height="53" viewBox="0 0 51 53" fill="none" xmlns="http://www.w3.org/2000/svg">
<path fill-rule="evenodd" clip-rule="evenodd" d="M3.31779 43.2891C3.29779 14.4418 3.28778 0.0180664 3.28778 0.0180664C10.355 0.628814 17.4751 3.09693 24.648 7.42237C24.7546 7.48886 24.8079 7.52213 24.8079 7.52213C24.8006 36.1752 24.7969 50.502 24.7969 50.502C17.6116 46.3027 10.4519 43.8983 3.31779 43.2891Z" fill="#0353A4"/>
<path fill-rule="evenodd" clip-rule="evenodd" d="M47.5066 43.2711C47.5266 14.4236 47.5366 0 47.5366 0C40.4694 0.610819 33.3494 3.07894 26.1765 7.40431C26.0698 7.47079 26.0165 7.50407 26.0165 7.50407C26.0239 36.1573 26.0276 50.4838 26.0276 50.4838C33.2128 46.2846 40.3726 43.8804 47.5066 43.2711Z" fill="#FFC81B"/>
<path fill-rule="evenodd" clip-rule="evenodd" d="M2.2127 44.5528C2.23499 18.1113 2.24607 4.8905 2.24607 4.8905C0.748714 4.8905 0 4.8905 0 4.8905C0.0100043 33.7419 0.0148383 47.7606 0.0148383 47.7606C8.07789 47.2789 18.0748 49.5246 25.4838 52.8521C19.7074 48.2314 12.0773 45.5334 2.2127 44.5528Z" fill="#0353A4"/>
<path fill-rule="evenodd" clip-rule="evenodd" d="M48.7872 44.5534C48.765 18.1119 48.7538 4.89111 48.7538 4.89111C50.2513 4.89111 51 4.89111 51 4.89111C50.99 33.7424 50.9852 47.7613 50.9852 47.7613C42.922 47.2794 32.9251 49.5252 25.5162 52.8526C31.2924 48.2321 38.9227 45.534 48.7872 44.5534Z" fill="#FFC81B"/>
<path d="M12.0946 36.8848C10.8859 36.8848 9.96794 36.6531 9.34064 36.1899L10.1668 34.1052C10.5952 34.419 11.1537 34.5759 11.8422 34.5759C12.3777 34.5759 12.7831 34.4115 13.0585 34.0827C13.3492 33.7689 13.4946 33.2982 13.4946 32.6705V20.4088H16.3633V32.6033C16.3633 33.9333 15.9885 34.9794 15.2388 35.7415C14.4891 36.5037 13.441 36.8848 12.0946 36.8848ZM14.9175 18.4362C14.3973 18.4362 13.9612 18.2793 13.6093 17.9654C13.2574 17.6367 13.0815 17.2332 13.0815 16.755C13.0815 16.2767 13.2574 15.8807 13.6093 15.5669C13.9612 15.2381 14.3973 15.0737 14.9175 15.0737C15.4377 15.0737 15.8737 15.2306 16.2256 15.5445C16.5775 15.8434 16.7535 16.2244 16.7535 16.6877C16.7535 17.1809 16.5775 17.5993 16.2256 17.943C15.889 18.2718 15.453 18.4362 14.9175 18.4362Z" fill="white"/>
<path d="M38.0001 22.765C39.1935 22.765 40.2569 23.0191 41.1902 23.5272C42.1388 24.0353 42.8808 24.7526 43.4163 25.6791C43.9518 26.6057 44.2196 27.6742 44.2196 28.8847C44.2196 30.0952 43.9518 31.1711 43.4163 32.1126C42.8808 33.0392 42.1388 33.7565 41.1902 34.2646C40.2569 34.7727 39.1935 35.0267 38.0001 35.0267C37.1586 35.0267 36.386 34.8848 35.6822 34.6008C34.9937 34.3169 34.4123 33.891 33.938 33.3231V34.8698H31.2069V18.2369H34.0757V24.3566C34.5653 23.8335 35.139 23.4375 35.7969 23.1685C36.4701 22.8995 37.2045 22.765 38.0001 22.765ZM37.6788 32.6282C38.7345 32.6282 39.599 32.2845 40.2722 31.597C40.9607 30.9096 41.3049 30.0055 41.3049 28.8847C41.3049 27.7639 40.9607 26.8597 40.2722 26.1723C39.599 25.4849 38.7345 25.1412 37.6788 25.1412C36.9903 25.1412 36.3707 25.2981 35.8199 25.6119C35.2691 25.9108 34.833 26.3442 34.5117 26.912C34.1904 27.4799 34.0298 28.1375 34.0298 28.8847C34.0298 29.6319 34.1904 30.2894 34.5117 30.8573C34.833 31.4252 35.2691 31.866 35.8199 32.1799C36.3707 32.4788 36.9903 32.6282 37.6788 32.6282Z" fill="white"/>
</svg>
